<?xml version="1.0" encoding="UTF-8"?>
<svg width="550px" height="200px" viewBox="0 0 550 200" version="1.1" xmlns="http://www.w3.org/2000/svg" xmlns:xlink="http://www.w3.org/1999/xlink">
    <title>Abstract-one</title>
    <g id="Abstract-one" stroke="none" stroke-width="1" fill="none" fill-rule="evenodd">
        <line x1="145" y1="12.4450103" x2="245" y2="12.4450103" id="Stroke-4" stroke="#FF9800" stroke-width="2" stroke-linecap="round" stroke-linejoin="round"></line>
        <line x1="305" y1="12.4450103" x2="405" y2="12.4450103" id="Stroke-4" stroke="#FF9800" stroke-width="2" stroke-linecap="round" stroke-linejoin="round"></line>
        <polyline id="Stroke-6" stroke="#0009FF" stroke-width="2" stroke-linecap="round" stroke-linejoin="round" points="49.486881 32.2301064 253.504572 32.2301064 275.097889 6.03254734 297.042209 32.2301064 500.708896 32.2301064"></polyline>
        <line x1="145" y1="185" x2="245" y2="185" id="Stroke-4" stroke="#FF9800" stroke-width="2" stroke-linecap="round" stroke-linejoin="round"></line>
        <line x1="305" y1="185" x2="405" y2="185" id="Stroke-4" stroke="#FF9800" stroke-width="2" stroke-linecap="round" stroke-linejoin="round"></line>
        <polyline id="Stroke-6" stroke="#0009FF" stroke-width="2" stroke-linecap="round" stroke-linejoin="round" transform="translate(275.097889, 181.098780) scale(1, -1) translate(-275.097889, -181.098780) " points="49.486881 194.197559 253.504572 194.197559 275.097889 168 297.042209 194.197559 500.708896 194.197559"></polyline>
        <polyline id="Stroke-7" stroke="#FF0000" stroke-width="2" stroke-linecap="round" stroke-linejoin="round" points="212.402914 78.4066831 195.399307 100.085492 212.239892 121.593317"></polyline>
        <polyline id="Stroke-8" stroke="#FF0000" stroke-width="2" stroke-linecap="round" stroke-linejoin="round" points="196.104474 50.3143995 156.979118 100.196575 195.729143 149.685601"></polyline>
        <polyline id="Stroke-9" stroke="#FF0000" stroke-width="2" stroke-linecap="round" stroke-linejoin="round" points="133.031266 78.4066831 116.026901 100.085492 132.868243 121.593317"></polyline>
        <polyline id="Stroke-10" stroke="#FF0000" stroke-width="2" stroke-linecap="round" stroke-linejoin="round" points="116.732193 50.3143995 77.6070899 100.196575 116.356989 149.685601"></polyline>
        <polyline id="Stroke-11" stroke="#FF0000" stroke-width="2" stroke-linecap="round" stroke-linejoin="round" points="55.4236702 78.4066831 38.4198106 100.085492 55.2605215 121.593317"></polyline>
        <polyline id="Stroke-12" stroke="#FF0000" stroke-width="2" stroke-linecap="round" stroke-linejoin="round" points="39.1251033 50.3143995 22.3248002 71.7337847 -3.55271368e-15 100.196575 38.7498992 149.685601"></polyline>
        <polyline id="Stroke-13" stroke="#FF0000" stroke-width="2" stroke-linecap="round" stroke-linejoin="round" points="336.879931 78.4066831 353.883538 100.085492 337.042953 121.593317"></polyline>
        <polyline id="Stroke-14" stroke="#FF0000" stroke-width="2" stroke-linecap="round" stroke-linejoin="round" points="353.178372 50.3143995 392.303728 100.196575 353.553702 149.685601"></polyline>
        <polyline id="Stroke-15" stroke="#FF0000" stroke-width="2" stroke-linecap="round" stroke-linejoin="round" points="416.25158 78.4066831 433.25645 100.085492 416.415866 121.593317"></polyline>
        <polyline id="Stroke-16" stroke="#FF0000" stroke-width="2" stroke-linecap="round" stroke-linejoin="round" points="432.551284 50.3143995 471.675376 100.196575 432.925351 149.685601"></polyline>
        <polyline id="Stroke-17" stroke="#FF0000" stroke-width="2" stroke-linecap="round" stroke-linejoin="round" points="493.859049 78.4066831 510.862655 100.085492 494.022071 121.593317"></polyline>
        <polyline id="Stroke-18" stroke="#FF0000" stroke-width="2" stroke-linecap="round" stroke-linejoin="round" points="510.157489 50.3143995 549.282845 100.196575 510.53282 149.685601"></polyline>
        <path d="M274.999368,71.780398 C290.573801,71.780398 303.219539,84.4257956 303.219539,100.000063 C303.219539,115.574305 290.573827,128.219602 274.999368,128.219602 C259.425164,128.219602 246.780461,115.57456 246.780461,100.000063 C246.780461,84.4255414 259.425189,71.780398 274.999368,71.780398 Z" id="Path" stroke="#979797" fill-rule="nonzero"></path>
    </g>
</svg>