<?xml version="1.0" encoding="UTF-8" standalone="no"?>
<!DOCTYPE svg PUBLIC "-//W3C//DTD SVG 1.1//EN" "http://www.w3.org/Graphics/SVG/1.1/DTD/svg11.dtd">
<svg width="100%" height="100%" viewBox="0 0 5342 4129" version="1.1" xmlns="http://www.w3.org/2000/svg" xmlns:xlink="http://www.w3.org/1999/xlink" xml:space="preserve" xmlns:serif="http://www.serif.com/" style="fill-rule:evenodd;clip-rule:evenodd;stroke-miterlimit:1.41421;">
    <g transform="matrix(1,0,0,1,-21863.6,-44784.1)">
        <g transform="matrix(1.36399,0,-4.93038e-32,1.36399,16006.7,34928.6)">
            <g transform="matrix(4.16667,0,0,4.16667,5635.61,10377.5)">
                <path d="M431.538,-192.968L441.394,-192.968L441.394,-183.115L451.243,-183.115L451.243,-173.263L461.099,-173.263L461.099,-163.41L470.948,-163.41L470.948,-153.557L480.804,-153.557" style="fill:none;stroke:white;stroke-opacity:0.04;stroke-width:2.57px;"/>
            </g>
            <g transform="matrix(4.16667,0,0,4.16667,5635.61,10377.5)">
                <path d="M553.023,-88.161L559.988,-95.128L566.953,-88.161L573.926,-95.128L580.89,-88.161L587.855,-95.128L594.82,-88.161L601.792,-95.128L608.758,-88.161L615.722,-95.128" style="fill:none;stroke:white;stroke-opacity:0.04;stroke-width:2.57px;"/>
            </g>
            <g transform="matrix(4.16667,0,0,4.16667,5635.61,10377.5)">
                <path d="M413.079,-189.729C419.071,-180.089 416.117,-167.415 406.471,-161.422C396.832,-155.428 384.159,-158.385 378.165,-168.025C372.171,-177.667 375.128,-190.34 384.769,-196.334C394.41,-202.328 407.087,-199.371 413.079,-189.729Z" style="fill:none;stroke:white;stroke-opacity:0.04;stroke-width:2.57px;"/>
            </g>
            <g transform="matrix(4.16667,0,0,4.16667,5635.61,10377.5)">
                <path d="M462.114,-240.459L447.015,-255.552L469.653,-263.097L462.114,-240.459Z" style="fill:none;stroke:white;stroke-opacity:0.04;stroke-width:2.57px;"/>
            </g>
            <g transform="matrix(4.16667,0,0,4.16667,5635.61,10377.5)">
                <rect x="516.987" y="-288.102" width="15.646" height="15.647" style="fill:none;stroke:white;stroke-opacity:0.04;stroke-width:2.57px;"/>
            </g>
            <g transform="matrix(4.16667,0,0,4.16667,5635.61,10377.5)">
                <rect x="350.092" y="-81.707" width="26.028" height="26.027" style="fill:none;stroke:white;stroke-opacity:0.04;stroke-width:2.57px;"/>
            </g>
            <g transform="matrix(4.16667,0,0,4.16667,5635.61,10377.5)">
                <path d="M322.422,-110.59L332.754,-120.921L343.085,-110.59L353.418,-120.921L363.749,-110.59L374.082,-120.921L384.412,-110.59L394.746,-120.921L405.078,-110.59L415.41,-120.921" style="fill:none;stroke:white;stroke-opacity:0.04;stroke-width:2.57px;"/>
            </g>
            <g transform="matrix(4.16667,0,0,4.16667,5635.61,10377.5)">
                <path d="M464.116,-94.801L441.002,-117.914L475.673,-129.47L464.116,-94.801Z" style="fill:none;stroke:white;stroke-opacity:0.04;stroke-width:2.57px;"/>
            </g>
            <g transform="matrix(4.16667,0,0,4.16667,5635.61,10377.5)">
                <path d="M493.677,-244.134L480.825,-231.284" style="fill:none;stroke:white;stroke-opacity:0.04;stroke-width:2.57px;"/>
            </g>
            <g transform="matrix(4.16667,0,0,4.16667,5635.61,10377.5)">
                <path d="M493.677,-231.284L480.825,-244.134" style="fill:none;stroke:white;stroke-opacity:0.04;stroke-width:2.57px;"/>
            </g>
            <g transform="matrix(4.16667,0,0,4.16667,5635.61,10377.5)">
                <path d="M574.051,-145.739L561.199,-132.89" style="fill:none;stroke:white;stroke-opacity:0.04;stroke-width:2.57px;"/>
            </g>
            <g transform="matrix(4.16667,0,0,4.16667,5635.61,10377.5)">
                <path d="M574.051,-132.89L561.199,-145.739" style="fill:none;stroke:white;stroke-opacity:0.04;stroke-width:2.57px;"/>
            </g>
            <g transform="matrix(4.16667,0,0,4.16667,5635.61,10377.5)">
                <path d="M163.198,-80.192C167.714,-72.928 165.485,-63.377 158.222,-58.861C150.957,-54.346 141.407,-56.572 136.891,-63.836C132.375,-71.102 134.603,-80.651 141.867,-85.167C149.132,-89.684 158.682,-87.457 163.198,-80.192Z" style="fill:none;stroke:white;stroke-opacity:0.04;stroke-width:2.57px;"/>
            </g>
            <g transform="matrix(4.16667,0,0,4.16667,5635.61,10377.5)">
                <path d="M25.71,-32.196L10.617,-47.288L33.255,-54.834L25.71,-32.196Z" style="fill:none;stroke:white;stroke-opacity:0.04;stroke-width:2.57px;"/>
            </g>
            <g transform="matrix(4.16667,0,0,4.16667,5635.61,10377.5)">
                <rect x="80.587" y="-79.838" width="15.645" height="15.646" style="fill:none;stroke:white;stroke-opacity:0.04;stroke-width:2.57px;"/>
            </g>
            <g transform="matrix(4.16667,0,0,4.16667,5635.61,10377.5)">
                <path d="M207.809,-58.42L211.592,-72.533L225.706,-68.75L229.488,-82.864L243.601,-79.082L247.383,-93.196L261.497,-89.414L265.278,-103.528L279.391,-99.746" style="fill:none;stroke:white;stroke-opacity:0.04;stroke-width:2.57px;"/>
            </g>
            <g transform="matrix(4.16667,0,0,4.16667,5635.61,10377.5)">
                <path d="M-319.779,-88.161L-312.812,-95.128L-305.846,-88.161L-298.879,-95.128L-291.912,-88.161L-284.945,-95.128L-277.979,-88.161L-271.011,-95.128L-264.044,-88.161L-257.078,-95.128" style="fill:none;stroke:white;stroke-opacity:0.04;stroke-width:2.57px;"/>
            </g>
            <g transform="matrix(4.16667,0,0,4.16667,5635.61,10377.5)">
                <path d="M-227.962,-239.9L-218.11,-239.9L-218.11,-230.048L-208.256,-230.048L-208.256,-220.195L-198.404,-220.195L-198.404,-210.341L-188.552,-210.341L-188.552,-200.489L-178.7,-200.489" style="fill:none;stroke:white;stroke-opacity:0.04;stroke-width:2.57px;"/>
            </g>
            <g transform="matrix(4.16667,0,0,4.16667,5635.61,10377.5)">
                <path d="M-273.203,-288.455C-268.686,-281.191 -270.915,-271.64 -278.179,-267.125C-285.443,-262.609 -294.993,-264.836 -299.51,-272.1C-304.026,-279.365 -301.798,-288.915 -294.533,-293.431C-287.269,-297.948 -277.719,-295.72 -273.203,-288.455Z" style="fill:none;stroke:white;stroke-opacity:0.04;stroke-width:2.57px;"/>
            </g>
            <g transform="matrix(4.16667,0,0,4.16667,5635.61,10377.5)">
                <path d="M-228.591,-266.683L-224.809,-280.796L-210.695,-277.014L-206.913,-291.128L-192.799,-287.345L-189.018,-301.46L-174.904,-297.677L-171.123,-311.792L-157.009,-308.01" style="fill:none;stroke:white;stroke-opacity:0.04;stroke-width:2.57px;"/>
            </g>
            <g transform="matrix(4.16667,0,0,4.16667,5635.61,10377.5)">
                <path d="M-255.054,-137.784L-279.718,-162.449L-242.721,-174.781L-255.054,-137.784Z" style="fill:none;stroke:white;stroke-opacity:0.04;stroke-width:2.57px;"/>
            </g>
            <g transform="matrix(4.16667,0,0,4.16667,5635.61,10377.5)">
                <path d="M-99.319,-203.729C-93.325,-194.089 -96.282,-181.415 -105.922,-175.422C-115.565,-169.428 -128.238,-172.385 -134.232,-182.025C-140.226,-191.667 -137.269,-204.34 -127.628,-210.334C-117.987,-216.328 -105.312,-213.371 -99.319,-203.729Z" style="fill:none;stroke:white;stroke-opacity:0.04;stroke-width:2.57px;"/>
            </g>
            <g transform="matrix(4.16667,0,0,4.16667,5635.61,10377.5)">
                <rect x="-134.305" y="-81.707" width="26.03" height="26.027" style="fill:none;stroke:white;stroke-opacity:0.04;stroke-width:2.57px;"/>
            </g>
            <g transform="matrix(4.16667,0,0,4.16667,5635.61,10377.5)">
                <path d="M-266.672,-212.125L-294.902,-201.851L-305.177,-230.081L-276.947,-240.355L-266.672,-212.125Z" style="fill:none;stroke:white;stroke-opacity:0.04;stroke-width:2.57px;"/>
            </g>
            <g transform="matrix(4.16667,0,0,4.16667,5635.61,10377.5)">
                <path d="M-158.475,-114.79L-148.143,-125.121L-137.811,-114.79L-127.479,-125.121L-117.148,-114.79L-106.815,-125.121L-96.485,-114.79L-86.152,-125.121L-75.819,-114.79L-65.488,-125.121" style="fill:none;stroke:white;stroke-opacity:0.04;stroke-width:2.57px;"/>
            </g>
            <g transform="matrix(4.16667,0,0,4.16667,5635.61,10377.5)">
                <path d="M-150.947,-242.856L-163.797,-230.006" style="fill:none;stroke:white;stroke-opacity:0.04;stroke-width:2.57px;"/>
            </g>
            <g transform="matrix(4.16667,0,0,4.16667,5635.61,10377.5)">
                <path d="M-150.947,-230.006L-163.797,-242.856" style="fill:none;stroke:white;stroke-opacity:0.04;stroke-width:2.57px;"/>
            </g>
            <g transform="matrix(4.16667,0,0,4.16667,5635.61,10377.5)">
                <path d="M-298.752,-145.739L-311.601,-132.89" style="fill:none;stroke:white;stroke-opacity:0.04;stroke-width:2.57px;"/>
            </g>
            <g transform="matrix(4.16667,0,0,4.16667,5635.61,10377.5)">
                <path d="M-298.752,-132.89L-311.601,-145.739" style="fill:none;stroke:white;stroke-opacity:0.04;stroke-width:2.57px;"/>
            </g>
            <g transform="matrix(4.16667,0,0,4.16667,5635.61,10377.5)">
                <path d="M-196.392,-99.258C-191.876,-91.994 -194.105,-82.444 -201.37,-77.927C-208.634,-73.411 -218.183,-75.639 -222.7,-82.903C-227.217,-90.168 -224.989,-99.718 -217.725,-104.234C-210.46,-108.75 -200.909,-106.522 -196.392,-99.258Z" style="fill:none;stroke:white;stroke-opacity:0.04;stroke-width:2.57px;"/>
            </g>
            <g transform="matrix(4.16667,0,0,4.16667,5635.61,10377.5)">
                <path d="M392.674,-394.1L359.494,-427.281L409.264,-443.87L392.674,-394.1Z" style="fill:none;stroke:white;stroke-opacity:0.04;stroke-width:2.57px;"/>
            </g>
            <g transform="matrix(4.16667,0,0,4.16667,5635.61,10377.5)">
                <path d="M431.538,-609.493L441.394,-609.493L441.394,-599.644L451.243,-599.644L451.243,-589.788L461.099,-589.788L461.099,-579.937L470.948,-579.937L470.948,-570.085L480.804,-570.085" style="fill:none;stroke:white;stroke-opacity:0.04;stroke-width:2.57px;"/>
            </g>
            <g transform="matrix(4.16667,0,0,4.16667,5635.61,10377.5)">
                <path d="M553.023,-504.689L559.988,-511.656L566.953,-504.689L573.926,-511.656L580.89,-504.689L587.855,-511.656L594.82,-504.689L601.792,-511.656L608.758,-504.689L615.722,-511.656" style="fill:none;stroke:white;stroke-opacity:0.04;stroke-width:2.57px;"/>
            </g>
            <g transform="matrix(4.16667,0,0,4.16667,5635.61,10377.5)">
                <path d="M443.333,-359.356L443.333,-370.454L454.435,-370.454L454.435,-381.552L465.53,-381.552L465.53,-392.649L476.625,-392.649L476.625,-403.746L487.727,-403.746L487.727,-414.844" style="fill:none;stroke:white;stroke-opacity:0.04;stroke-width:2.57px;"/>
            </g>
            <g transform="matrix(4.16667,0,0,4.16667,5635.61,10377.5)">
                <path d="M486.18,-450.143C489.638,-444.582 487.93,-437.272 482.365,-433.814C476.807,-430.358 469.499,-432.062 466.041,-437.624C462.583,-443.184 464.291,-450.495 469.849,-453.953C475.407,-457.41 482.722,-455.705 486.18,-450.143Z" style="fill:none;stroke:white;stroke-opacity:0.04;stroke-width:2.57px;"/>
            </g>
            <g transform="matrix(4.16667,0,0,4.16667,5635.61,10377.5)">
                <path d="M413.079,-606.259C419.071,-596.62 416.117,-583.943 406.471,-577.949C396.832,-571.956 384.159,-574.913 378.165,-584.553C372.171,-594.198 375.128,-606.868 384.769,-612.86C394.41,-618.859 407.087,-615.898 413.079,-606.259Z" style="fill:none;stroke:white;stroke-opacity:0.04;stroke-width:2.57px;"/>
            </g>
            <g transform="matrix(4.16667,0,0,4.16667,5635.61,10377.5)">
                <path d="M462.114,-656.988L447.015,-672.08L469.653,-679.626L462.114,-656.988Z" style="fill:none;stroke:white;stroke-opacity:0.04;stroke-width:2.57px;"/>
            </g>
            <g transform="matrix(4.16667,0,0,4.16667,5635.61,10377.5)">
                <rect x="516.987" y="-704.63" width="15.646" height="15.645" style="fill:none;stroke:white;stroke-opacity:0.04;stroke-width:2.57px;"/>
            </g>
            <g transform="matrix(4.16667,0,0,4.16667,5635.61,10377.5)">
                <rect x="350.092" y="-498.234" width="26.028" height="26.027" style="fill:none;stroke:white;stroke-opacity:0.04;stroke-width:2.57px;"/>
            </g>
            <g transform="matrix(4.16667,0,0,4.16667,5635.61,10377.5)">
                <path d="M496.995,-357.17L500.012,-368.454L511.296,-365.429L514.32,-376.711L525.604,-373.688L528.628,-384.972L539.912,-381.949L542.936,-393.231L554.213,-390.208" style="fill:none;stroke:white;stroke-opacity:0.04;stroke-width:2.57px;"/>
            </g>
            <g transform="matrix(4.16667,0,0,4.16667,5635.61,10377.5)">
                <path d="M399.408,-281.591L384.316,-296.683L406.954,-304.229L399.408,-281.591Z" style="fill:none;stroke:white;stroke-opacity:0.04;stroke-width:2.57px;"/>
            </g>
            <g transform="matrix(4.16667,0,0,4.16667,5635.61,10377.5)">
                <rect x="516.987" y="-316.223" width="15.646" height="15.646" style="fill:none;stroke:white;stroke-opacity:0.04;stroke-width:2.57px;"/>
            </g>
            <g transform="matrix(4.16667,0,0,4.16667,5635.61,10377.5)">
                <path d="M322.422,-527.117L332.754,-537.449L343.085,-527.117L353.418,-537.449L363.749,-527.117L374.082,-537.449L384.412,-527.117L394.746,-537.449L405.078,-527.117L415.41,-537.449" style="fill:none;stroke:white;stroke-opacity:0.04;stroke-width:2.57px;"/>
            </g>
            <g transform="matrix(4.16667,0,0,4.16667,5635.61,10377.5)">
                <path d="M464.116,-511.329L441.002,-534.441L475.673,-545.998L464.116,-511.329Z" style="fill:none;stroke:white;stroke-opacity:0.04;stroke-width:2.57px;"/>
            </g>
            <g transform="matrix(4.16667,0,0,4.16667,5635.61,10377.5)">
                <path d="M493.677,-660.663L480.825,-647.811" style="fill:none;stroke:white;stroke-opacity:0.04;stroke-width:2.57px;"/>
            </g>
            <g transform="matrix(4.16667,0,0,4.16667,5635.61,10377.5)">
                <path d="M493.677,-647.811L480.825,-660.663" style="fill:none;stroke:white;stroke-opacity:0.04;stroke-width:2.57px;"/>
            </g>
            <g transform="matrix(4.16667,0,0,4.16667,5635.61,10377.5)">
                <path d="M574.051,-562.266L561.199,-549.418" style="fill:none;stroke:white;stroke-opacity:0.04;stroke-width:2.57px;"/>
            </g>
            <g transform="matrix(4.16667,0,0,4.16667,5635.61,10377.5)">
                <path d="M574.051,-549.418L561.199,-562.266" style="fill:none;stroke:white;stroke-opacity:0.04;stroke-width:2.57px;"/>
            </g>
            <g transform="matrix(4.16667,0,0,4.16667,5635.61,10377.5)">
                <path d="M400.591,-339.251L387.744,-326.4" style="fill:none;stroke:white;stroke-opacity:0.04;stroke-width:2.57px;"/>
            </g>
            <g transform="matrix(4.16667,0,0,4.16667,5635.61,10377.5)">
                <path d="M400.591,-326.4L387.744,-339.251" style="fill:none;stroke:white;stroke-opacity:0.04;stroke-width:2.57px;"/>
            </g>
            <g transform="matrix(4.16667,0,0,4.16667,5635.61,10377.5)">
                <path d="M-43.727,-185.837L-76.906,-219.017L-27.137,-235.606L-43.727,-185.837Z" style="fill:none;stroke:white;stroke-opacity:0.04;stroke-width:2.57px;"/>
            </g>
            <g transform="matrix(4.16667,0,0,4.16667,5635.61,10377.5)">
                <path d="M-4.862,-401.232L4.99,-401.232L4.99,-391.379L14.842,-391.379L14.842,-381.526L24.695,-381.526L24.695,-371.673L34.548,-371.673L34.548,-361.821L44.401,-361.821" style="fill:none;stroke:white;stroke-opacity:0.04;stroke-width:2.57px;"/>
            </g>
            <g transform="matrix(4.16667,0,0,4.16667,5635.61,10377.5)">
                <path d="M116.622,-296.425L123.588,-303.392L130.555,-296.425L137.522,-303.392L144.489,-296.425L151.455,-303.392L158.422,-296.425L165.389,-303.392L172.356,-296.425L179.323,-303.392" style="fill:none;stroke:white;stroke-opacity:0.04;stroke-width:2.57px;"/>
            </g>
            <g transform="matrix(4.16667,0,0,4.16667,5635.61,10377.5)">
                <path d="M208.439,-448.164L218.291,-448.164L218.291,-438.312L228.144,-438.312L228.144,-428.459L237.996,-428.459L237.996,-418.605L247.849,-418.605L247.849,-408.753L257.701,-408.753" style="fill:none;stroke:white;stroke-opacity:0.04;stroke-width:2.57px;"/>
            </g>
            <g transform="matrix(4.16667,0,0,4.16667,5635.61,10377.5)">
                <path d="M6.935,-151.093L6.935,-162.19L18.032,-162.19L18.032,-173.288L29.13,-173.288L29.13,-184.385L40.227,-184.385L40.227,-195.482L51.325,-195.482L51.325,-206.58" style="fill:none;stroke:white;stroke-opacity:0.04;stroke-width:2.57px;"/>
            </g>
            <g transform="matrix(4.16667,0,0,4.16667,5635.61,10377.5)">
                <path d="M163.198,-496.719C167.714,-489.455 165.485,-479.904 158.222,-475.389C150.957,-470.873 141.407,-473.1 136.891,-480.364C132.375,-487.629 134.603,-497.179 141.867,-501.695C149.132,-506.212 158.682,-503.984 163.198,-496.719Z" style="fill:none;stroke:white;stroke-opacity:0.04;stroke-width:2.57px;"/>
            </g>
            <g transform="matrix(4.16667,0,0,4.16667,5635.61,10377.5)">
                <path d="M49.777,-241.879C53.234,-236.318 51.529,-229.008 45.967,-225.55C40.407,-222.094 33.096,-223.798 29.638,-229.36C26.182,-234.92 27.887,-242.231 33.448,-245.689C39.009,-249.146 46.319,-247.441 49.777,-241.879Z" style="fill:none;stroke:white;stroke-opacity:0.04;stroke-width:2.57px;"/>
            </g>
            <g transform="matrix(4.16667,0,0,4.16667,5635.61,10377.5)">
                <path d="M-23.322,-397.993C-17.329,-388.353 -20.285,-375.679 -29.926,-369.685C-39.568,-363.692 -52.242,-366.649 -58.236,-376.289C-64.229,-385.93 -61.273,-398.604 -51.631,-404.598C-41.992,-410.592 -29.316,-407.634 -23.322,-397.993Z" style="fill:none;stroke:white;stroke-opacity:0.04;stroke-width:2.57px;"/>
            </g>
            <g transform="matrix(4.16667,0,0,4.16667,5635.61,10377.5)">
                <path d="M25.71,-448.723L10.617,-463.816L33.255,-471.361L25.71,-448.723Z" style="fill:none;stroke:white;stroke-opacity:0.04;stroke-width:2.57px;"/>
            </g>
            <g transform="matrix(4.16667,0,0,4.16667,5635.61,10377.5)">
                <rect x="80.587" y="-496.366" width="15.645" height="15.647" style="fill:none;stroke:white;stroke-opacity:0.04;stroke-width:2.57px;"/>
            </g>
            <g transform="matrix(4.16667,0,0,4.16667,5635.61,10377.5)">
                <rect x="-86.309" y="-289.97" width="26.028" height="26.027" style="fill:none;stroke:white;stroke-opacity:0.04;stroke-width:2.57px;"/>
            </g>
            <g transform="matrix(4.16667,0,0,4.16667,5635.61,10377.5)">
                <path d="M207.809,-474.947L211.592,-489.06L225.706,-485.278L229.488,-499.392L243.601,-495.609L247.383,-509.724L261.497,-505.941L265.278,-520.056L279.391,-516.274" style="fill:none;stroke:white;stroke-opacity:0.04;stroke-width:2.57px;"/>
            </g>
            <g transform="matrix(4.16667,0,0,4.16667,5635.61,10377.5)">
                <path d="M60.591,-148.907L63.614,-160.19L74.898,-157.166L77.921,-168.448L89.203,-165.425L92.227,-176.708L103.509,-173.685L106.533,-184.968L117.815,-181.944" style="fill:none;stroke:white;stroke-opacity:0.04;stroke-width:2.57px;"/>
            </g>
            <g transform="matrix(4.16667,0,0,4.16667,5635.61,10377.5)">
                <path d="M168.991,-219.959L179.107,-225.8L184.948,-215.684L195.064,-221.525L200.905,-211.409L211.02,-217.248L216.86,-207.133L226.976,-212.973L232.817,-202.857" style="fill:none;stroke:white;stroke-opacity:0.04;stroke-width:2.57px;"/>
            </g>
            <g transform="matrix(4.16667,0,0,4.16667,5635.61,10377.5)">
                <path d="M-36.992,-73.328L-52.084,-88.42L-29.446,-95.965L-36.992,-73.328Z" style="fill:none;stroke:white;stroke-opacity:0.04;stroke-width:2.57px;"/>
            </g>
            <g transform="matrix(4.16667,0,0,4.16667,5635.61,10377.5)">
                <rect x="80.587" y="-107.959" width="15.645" height="15.646" style="fill:none;stroke:white;stroke-opacity:0.04;stroke-width:2.57px;"/>
            </g>
            <g transform="matrix(4.16667,0,0,4.16667,5635.61,10377.5)">
                <path d="M-113.979,-318.853L-103.647,-329.185L-93.315,-318.853L-82.983,-329.185L-72.652,-318.853L-62.319,-329.185L-51.988,-318.853L-41.656,-329.185L-31.324,-318.853L-20.992,-329.185" style="fill:none;stroke:white;stroke-opacity:0.04;stroke-width:2.57px;"/>
            </g>
            <g transform="matrix(4.16667,0,0,4.16667,5635.61,10377.5)">
                <path d="M309.677,-178.837L276.498,-212.017L326.267,-228.606L309.677,-178.837Z" style="fill:none;stroke:white;stroke-opacity:0.04;stroke-width:2.57px;"/>
            </g>
            <g transform="matrix(4.16667,0,0,4.16667,5635.61,10377.5)">
                <path d="M181.347,-346.048L156.683,-370.712L193.679,-383.044L181.347,-346.048Z" style="fill:none;stroke:white;stroke-opacity:0.04;stroke-width:2.57px;"/>
            </g>
            <g transform="matrix(4.16667,0,0,4.16667,5635.61,10377.5)">
                <path d="M27.714,-303.065L4.602,-326.177L39.27,-337.734L27.714,-303.065Z" style="fill:none;stroke:white;stroke-opacity:0.04;stroke-width:2.57px;"/>
            </g>
            <g transform="matrix(4.16667,0,0,4.16667,5635.61,10377.5)">
                <path d="M253.393,-159.289L221.67,-127.566L205.809,-175.151L253.393,-159.289Z" style="fill:none;stroke:white;stroke-opacity:0.04;stroke-width:2.57px;"/>
            </g>
            <g transform="matrix(4.16667,0,0,4.16667,5635.61,10377.5)">
                <path d="M337.082,-411.993C343.076,-402.353 340.118,-389.679 330.479,-383.685C320.836,-377.692 308.163,-380.649 302.168,-390.289C296.175,-399.93 299.131,-412.604 308.773,-418.598C318.413,-424.592 331.088,-421.634 337.082,-411.993Z" style="fill:none;stroke:white;stroke-opacity:0.04;stroke-width:2.57px;"/>
            </g>
            <g transform="matrix(4.16667,0,0,4.16667,5635.61,10377.5)">
                <rect x="302.096" y="-289.97" width="26.029" height="26.027" style="fill:none;stroke:white;stroke-opacity:0.04;stroke-width:2.57px;"/>
            </g>
            <g transform="matrix(4.16667,0,0,4.16667,5635.61,10377.5)">
                <path d="M169.729,-420.389L141.499,-410.114L131.224,-438.345L159.453,-448.619L169.729,-420.389Z" style="fill:none;stroke:white;stroke-opacity:0.04;stroke-width:2.57px;"/>
            </g>
            <g transform="matrix(4.16667,0,0,4.16667,5635.61,10377.5)">
                <path d="M277.926,-323.053L288.258,-333.385L298.59,-323.053L308.922,-333.385L319.252,-323.053L329.585,-333.385L339.916,-323.053L350.249,-333.385L360.581,-323.053L370.912,-333.385" style="fill:none;stroke:white;stroke-opacity:0.04;stroke-width:2.57px;"/>
            </g>
            <g transform="matrix(4.16667,0,0,4.16667,5635.61,10377.5)">
                <path d="M57.276,-452.398L44.427,-439.548" style="fill:none;stroke:white;stroke-opacity:0.04;stroke-width:2.57px;"/>
            </g>
            <g transform="matrix(4.16667,0,0,4.16667,5635.61,10377.5)">
                <path d="M57.276,-439.548L44.427,-452.398" style="fill:none;stroke:white;stroke-opacity:0.04;stroke-width:2.57px;"/>
            </g>
            <g transform="matrix(4.16667,0,0,4.16667,5635.61,10377.5)">
                <path d="M263.67,-245.673L250.822,-232.825" style="fill:none;stroke:white;stroke-opacity:0.04;stroke-width:2.57px;"/>
            </g>
            <g transform="matrix(4.16667,0,0,4.16667,5635.61,10377.5)">
                <path d="M263.67,-232.825L250.822,-245.673" style="fill:none;stroke:white;stroke-opacity:0.04;stroke-width:2.57px;"/>
            </g>
            <g transform="matrix(4.16667,0,0,4.16667,5635.61,10377.5)">
                <path d="M285.453,-451.12L272.603,-438.27" style="fill:none;stroke:white;stroke-opacity:0.04;stroke-width:2.57px;"/>
            </g>
            <g transform="matrix(4.16667,0,0,4.16667,5635.61,10377.5)">
                <path d="M285.453,-438.27L272.603,-451.12" style="fill:none;stroke:white;stroke-opacity:0.04;stroke-width:2.57px;"/>
            </g>
            <g transform="matrix(4.16667,0,0,4.16667,5635.61,10377.5)">
                <path d="M194.014,-151.296L181.167,-138.447" style="fill:none;stroke:white;stroke-opacity:0.04;stroke-width:2.57px;"/>
            </g>
            <g transform="matrix(4.16667,0,0,4.16667,5635.61,10377.5)">
                <path d="M194.014,-138.447L181.167,-151.296" style="fill:none;stroke:white;stroke-opacity:0.04;stroke-width:2.57px;"/>
            </g>
            <g transform="matrix(4.16667,0,0,4.16667,5635.61,10377.5)">
                <path d="M137.648,-354.002L124.799,-341.154" style="fill:none;stroke:white;stroke-opacity:0.04;stroke-width:2.57px;"/>
            </g>
            <g transform="matrix(4.16667,0,0,4.16667,5635.61,10377.5)">
                <path d="M137.648,-341.154L124.799,-354.002" style="fill:none;stroke:white;stroke-opacity:0.04;stroke-width:2.57px;"/>
            </g>
            <g transform="matrix(4.16667,0,0,4.16667,5635.61,10377.5)">
                <path d="M295.239,-138.073L282.389,-125.224" style="fill:none;stroke:white;stroke-opacity:0.04;stroke-width:2.57px;"/>
            </g>
            <g transform="matrix(4.16667,0,0,4.16667,5635.61,10377.5)">
                <path d="M295.239,-125.224L282.389,-138.073" style="fill:none;stroke:white;stroke-opacity:0.04;stroke-width:2.57px;"/>
            </g>
            <g transform="matrix(4.16667,0,0,4.16667,5635.61,10377.5)">
                <path d="M-35.807,-130.987L-48.656,-118.137" style="fill:none;stroke:white;stroke-opacity:0.04;stroke-width:2.57px;"/>
            </g>
            <g transform="matrix(4.16667,0,0,4.16667,5635.61,10377.5)">
                <path d="M-35.807,-118.137L-48.656,-130.987" style="fill:none;stroke:white;stroke-opacity:0.04;stroke-width:2.57px;"/>
            </g>
            <g transform="matrix(4.16667,0,0,4.16667,5635.61,10377.5)">
                <path d="M240.008,-307.522C244.524,-300.258 242.296,-290.707 235.031,-286.19C227.767,-281.674 218.218,-283.902 213.701,-291.166C209.183,-298.431 211.412,-307.982 218.676,-312.497C225.941,-317.013 235.491,-314.786 240.008,-307.522Z" style="fill:none;stroke:white;stroke-opacity:0.04;stroke-width:2.57px;"/>
            </g>
            <g transform="matrix(4.16667,0,0,4.16667,5635.61,10377.5)">
                <path d="M-319.779,-504.689L-312.812,-511.656L-305.846,-504.689L-298.879,-511.656L-291.912,-504.689L-284.945,-511.656L-277.979,-504.689L-271.011,-511.656L-264.044,-504.689L-257.078,-511.656" style="fill:none;stroke:white;stroke-opacity:0.04;stroke-width:2.57px;"/>
            </g>
            <g transform="matrix(4.16667,0,0,4.16667,5635.61,10377.5)">
                <path d="M-227.962,-656.428L-218.11,-656.428L-218.11,-646.579L-208.256,-646.579L-208.256,-636.723L-198.404,-636.723L-198.404,-626.867L-188.552,-626.867L-188.552,-617.018L-178.7,-617.018" style="fill:none;stroke:white;stroke-opacity:0.04;stroke-width:2.57px;"/>
            </g>
            <g transform="matrix(4.16667,0,0,4.16667,5635.61,10377.5)">
                <path d="M-273.203,-704.98C-268.686,-697.721 -270.915,-688.166 -278.179,-683.651C-285.443,-679.136 -294.993,-681.362 -299.51,-688.628C-304.026,-695.894 -301.798,-705.442 -294.533,-709.957C-287.269,-714.479 -277.719,-712.246 -273.203,-704.98Z" style="fill:none;stroke:white;stroke-opacity:0.04;stroke-width:2.57px;"/>
            </g>
            <g transform="matrix(4.16667,0,0,4.16667,5635.61,10377.5)">
                <path d="M-228.591,-683.21L-224.809,-697.322L-210.695,-693.542L-206.913,-707.654L-192.799,-703.874L-189.018,-717.986L-174.904,-714.206L-171.123,-728.318L-157.009,-724.538" style="fill:none;stroke:white;stroke-opacity:0.04;stroke-width:2.57px;"/>
            </g>
            <g transform="matrix(4.16667,0,0,4.16667,5635.61,10377.5)">
                <path d="M-267.409,-428.223L-257.293,-434.064L-251.452,-423.948L-241.336,-429.789L-235.496,-419.672L-225.38,-425.512L-219.54,-415.396L-209.424,-421.237L-203.584,-411.121" style="fill:none;stroke:white;stroke-opacity:0.04;stroke-width:2.57px;"/>
            </g>
            <g transform="matrix(4.16667,0,0,4.16667,5635.61,10377.5)">
                <path d="M-126.723,-387.1L-159.902,-420.281L-110.133,-436.87L-126.723,-387.1Z" style="fill:none;stroke:white;stroke-opacity:0.04;stroke-width:2.57px;"/>
            </g>
            <g transform="matrix(4.16667,0,0,4.16667,5635.61,10377.5)">
                <path d="M-255.054,-554.312L-279.718,-578.976L-242.721,-591.307L-255.054,-554.312Z" style="fill:none;stroke:white;stroke-opacity:0.04;stroke-width:2.57px;"/>
            </g>
            <g transform="matrix(4.16667,0,0,4.16667,5635.61,10377.5)">
                <path d="M-183.007,-367.552L-214.731,-335.83L-230.592,-383.415L-183.007,-367.552Z" style="fill:none;stroke:white;stroke-opacity:0.04;stroke-width:2.57px;"/>
            </g>
            <g transform="matrix(4.16667,0,0,4.16667,5635.61,10377.5)">
                <path d="M-99.319,-620.259C-93.325,-610.62 -96.282,-597.943 -105.922,-591.951C-115.565,-585.959 -128.238,-588.913 -134.232,-598.552C-140.226,-608.198 -137.269,-620.868 -127.628,-626.86C-117.987,-632.859 -105.312,-629.898 -99.319,-620.259Z" style="fill:none;stroke:white;stroke-opacity:0.04;stroke-width:2.57px;"/>
            </g>
            <g transform="matrix(4.16667,0,0,4.16667,5635.61,10377.5)">
                <rect x="-134.305" y="-498.234" width="26.03" height="26.027" style="fill:none;stroke:white;stroke-opacity:0.04;stroke-width:2.57px;"/>
            </g>
            <g transform="matrix(4.16667,0,0,4.16667,5635.61,10377.5)">
                <path d="M-266.672,-628.652L-294.902,-618.376L-305.177,-646.607L-276.947,-656.883L-266.672,-628.652Z" style="fill:none;stroke:white;stroke-opacity:0.04;stroke-width:2.57px;"/>
            </g>
            <g transform="matrix(4.16667,0,0,4.16667,5635.61,10377.5)">
                <path d="M-158.475,-531.317L-148.143,-541.649L-137.811,-531.317L-127.479,-541.649L-117.148,-531.317L-106.815,-541.649L-96.485,-531.317L-86.152,-541.649L-75.819,-531.317L-65.488,-541.649" style="fill:none;stroke:white;stroke-opacity:0.04;stroke-width:2.57px;"/>
            </g>
            <g transform="matrix(4.16667,0,0,4.16667,5635.61,10377.5)">
                <path d="M-172.731,-453.937L-185.579,-441.089" style="fill:none;stroke:white;stroke-opacity:0.04;stroke-width:2.57px;"/>
            </g>
            <g transform="matrix(4.16667,0,0,4.16667,5635.61,10377.5)">
                <path d="M-172.731,-441.089L-185.579,-453.937" style="fill:none;stroke:white;stroke-opacity:0.04;stroke-width:2.57px;"/>
            </g>
            <g transform="matrix(4.16667,0,0,4.16667,5635.61,10377.5)">
                <path d="M-150.947,-659.382L-163.797,-646.537" style="fill:none;stroke:white;stroke-opacity:0.04;stroke-width:2.57px;"/>
            </g>
            <g transform="matrix(4.16667,0,0,4.16667,5635.61,10377.5)">
                <path d="M-150.947,-646.537L-163.797,-659.382" style="fill:none;stroke:white;stroke-opacity:0.04;stroke-width:2.57px;"/>
            </g>
            <g transform="matrix(4.16667,0,0,4.16667,5635.61,10377.5)">
                <path d="M-242.386,-359.56L-255.233,-346.711" style="fill:none;stroke:white;stroke-opacity:0.04;stroke-width:2.57px;"/>
            </g>
            <g transform="matrix(4.16667,0,0,4.16667,5635.61,10377.5)">
                <path d="M-242.386,-346.711L-255.233,-359.56" style="fill:none;stroke:white;stroke-opacity:0.04;stroke-width:2.57px;"/>
            </g>
            <g transform="matrix(4.16667,0,0,4.16667,5635.61,10377.5)">
                <path d="M-298.752,-562.266L-311.601,-549.418" style="fill:none;stroke:white;stroke-opacity:0.04;stroke-width:2.57px;"/>
            </g>
            <g transform="matrix(4.16667,0,0,4.16667,5635.61,10377.5)">
                <path d="M-298.752,-549.418L-311.601,-562.266" style="fill:none;stroke:white;stroke-opacity:0.04;stroke-width:2.57px;"/>
            </g>
            <g transform="matrix(4.16667,0,0,4.16667,5635.61,10377.5)">
                <path d="M-141.162,-346.337L-154.011,-333.487" style="fill:none;stroke:white;stroke-opacity:0.04;stroke-width:2.57px;"/>
            </g>
            <g transform="matrix(4.16667,0,0,4.16667,5635.61,10377.5)">
                <path d="M-141.162,-333.487L-154.011,-346.337" style="fill:none;stroke:white;stroke-opacity:0.04;stroke-width:2.57px;"/>
            </g>
            <g transform="matrix(4.16667,0,0,4.16667,5635.61,10377.5)">
                <path d="M-196.392,-515.786C-191.876,-508.523 -194.105,-498.971 -201.37,-494.454C-208.634,-489.938 -218.183,-492.166 -222.7,-499.43C-227.217,-506.695 -224.989,-516.246 -217.725,-520.761C-210.46,-525.277 -200.909,-523.05 -196.392,-515.786Z" style="fill:none;stroke:white;stroke-opacity:0.04;stroke-width:2.57px;"/>
            </g>
            <g transform="matrix(4.16667,0,0,4.16667,5635.61,10377.5)">
                <path d="M399.408,-698.12L384.316,-713.212L406.954,-720.758L399.408,-698.12Z" style="fill:none;stroke:white;stroke-opacity:0.04;stroke-width:2.57px;"/>
            </g>
            <g transform="matrix(4.16667,0,0,4.16667,5635.61,10377.5)">
                <rect x="516.987" y="-732.749" width="15.646" height="15.645" style="fill:none;stroke:white;stroke-opacity:0.04;stroke-width:2.57px;"/>
            </g>
            <g transform="matrix(4.16667,0,0,4.16667,5635.61,10377.5)">
                <path d="M-43.727,-602.367L-76.906,-635.547L-27.137,-652.137L-43.727,-602.367Z" style="fill:none;stroke:white;stroke-opacity:0.04;stroke-width:2.57px;"/>
            </g>
            <g transform="matrix(4.16667,0,0,4.16667,5635.61,10377.5)">
                <path d="M116.622,-712.953L123.588,-719.918L130.555,-712.953L137.522,-719.918L144.489,-712.953L151.455,-719.918L158.422,-712.953L165.389,-719.918L172.356,-712.953L179.323,-719.918" style="fill:none;stroke:white;stroke-opacity:0.04;stroke-width:2.57px;"/>
            </g>
            <g transform="matrix(4.16667,0,0,4.16667,5635.61,10377.5)">
                <path d="M6.935,-567.621L6.935,-578.718L18.032,-578.718L18.032,-589.816L29.13,-589.816L29.13,-600.911L40.227,-600.911L40.227,-612.013L51.325,-612.013L51.325,-623.108" style="fill:none;stroke:white;stroke-opacity:0.04;stroke-width:2.57px;"/>
            </g>
            <g transform="matrix(4.16667,0,0,4.16667,5635.61,10377.5)">
                <path d="M49.777,-658.409C53.234,-652.844 51.529,-645.536 45.967,-642.078C40.407,-638.62 33.096,-640.328 29.638,-645.886C26.182,-651.451 27.887,-658.759 33.448,-662.217C39.009,-665.675 46.319,-663.967 49.777,-658.409Z" style="fill:none;stroke:white;stroke-opacity:0.04;stroke-width:2.57px;"/>
            </g>
            <g transform="matrix(4.16667,0,0,4.16667,5635.61,10377.5)">
                <rect x="-86.309" y="-706.499" width="26.028" height="26.026" style="fill:none;stroke:white;stroke-opacity:0.04;stroke-width:2.57px;"/>
            </g>
            <g transform="matrix(4.16667,0,0,4.16667,5635.61,10377.5)">
                <path d="M60.591,-565.434L63.614,-576.718L74.898,-573.693L77.921,-584.975L89.203,-581.952L92.227,-593.239L103.509,-590.215L106.533,-601.499L117.815,-598.475" style="fill:none;stroke:white;stroke-opacity:0.04;stroke-width:2.57px;"/>
            </g>
            <g transform="matrix(4.16667,0,0,4.16667,5635.61,10377.5)">
                <path d="M168.991,-636.485L179.107,-642.33L184.948,-632.215L195.064,-638.053L200.905,-627.938L211.02,-633.776L216.86,-623.661L226.976,-629.499L232.817,-619.384" style="fill:none;stroke:white;stroke-opacity:0.04;stroke-width:2.57px;"/>
            </g>
            <g transform="matrix(4.16667,0,0,4.16667,5635.61,10377.5)">
                <path d="M-36.992,-489.855L-52.084,-504.947L-29.446,-512.493L-36.992,-489.855Z" style="fill:none;stroke:white;stroke-opacity:0.04;stroke-width:2.57px;"/>
            </g>
            <g transform="matrix(4.16667,0,0,4.16667,5635.61,10377.5)">
                <rect x="80.587" y="-524.487" width="15.645" height="15.646" style="fill:none;stroke:white;stroke-opacity:0.04;stroke-width:2.57px;"/>
            </g>
            <g transform="matrix(4.16667,0,0,4.16667,5635.61,10377.5)">
                <path d="M309.677,-595.367L276.498,-628.547L326.267,-645.137L309.677,-595.367Z" style="fill:none;stroke:white;stroke-opacity:0.04;stroke-width:2.57px;"/>
            </g>
            <g transform="matrix(4.16667,0,0,4.16667,5635.61,10377.5)">
                <path d="M27.714,-719.596L4.602,-742.703L39.27,-754.26L27.714,-719.596Z" style="fill:none;stroke:white;stroke-opacity:0.04;stroke-width:2.57px;"/>
            </g>
            <g transform="matrix(4.16667,0,0,4.16667,5635.61,10377.5)">
                <path d="M253.393,-575.816L221.67,-544.094L205.809,-591.678L253.393,-575.816Z" style="fill:none;stroke:white;stroke-opacity:0.04;stroke-width:2.57px;"/>
            </g>
            <g transform="matrix(4.16667,0,0,4.16667,5635.61,10377.5)">
                <rect x="302.096" y="-706.499" width="26.029" height="26.026" style="fill:none;stroke:white;stroke-opacity:0.04;stroke-width:2.57px;"/>
            </g>
            <g transform="matrix(4.16667,0,0,4.16667,5635.61,10377.5)">
                <path d="M263.67,-662.203L250.822,-649.351" style="fill:none;stroke:white;stroke-opacity:0.04;stroke-width:2.57px;"/>
            </g>
            <g transform="matrix(4.16667,0,0,4.16667,5635.61,10377.5)">
                <path d="M263.67,-649.351L250.822,-662.203" style="fill:none;stroke:white;stroke-opacity:0.04;stroke-width:2.57px;"/>
            </g>
            <g transform="matrix(4.16667,0,0,4.16667,5635.61,10377.5)">
                <path d="M194.014,-567.824L181.167,-554.975" style="fill:none;stroke:white;stroke-opacity:0.04;stroke-width:2.57px;"/>
            </g>
            <g transform="matrix(4.16667,0,0,4.16667,5635.61,10377.5)">
                <path d="M194.014,-554.975L181.167,-567.824" style="fill:none;stroke:white;stroke-opacity:0.04;stroke-width:2.57px;"/>
            </g>
            <g transform="matrix(4.16667,0,0,4.16667,5635.61,10377.5)">
                <path d="M295.239,-554.601L282.389,-541.751" style="fill:none;stroke:white;stroke-opacity:0.04;stroke-width:2.57px;"/>
            </g>
            <g transform="matrix(4.16667,0,0,4.16667,5635.61,10377.5)">
                <path d="M295.239,-541.751L282.389,-554.601" style="fill:none;stroke:white;stroke-opacity:0.04;stroke-width:2.57px;"/>
            </g>
            <g transform="matrix(4.16667,0,0,4.16667,5635.61,10377.5)">
                <path d="M-35.807,-547.515L-48.656,-534.664" style="fill:none;stroke:white;stroke-opacity:0.04;stroke-width:2.57px;"/>
            </g>
            <g transform="matrix(4.16667,0,0,4.16667,5635.61,10377.5)">
                <path d="M-35.807,-534.664L-48.656,-547.515" style="fill:none;stroke:white;stroke-opacity:0.04;stroke-width:2.57px;"/>
            </g>
            <g transform="matrix(4.16667,0,0,4.16667,5635.61,10377.5)">
                <path d="M240.008,-724.048C244.524,-716.789 242.296,-707.234 235.031,-702.719C227.767,-698.204 218.218,-700.43 213.701,-707.696C209.183,-714.962 211.412,-724.51 218.676,-729.025C225.941,-733.54 235.491,-731.314 240.008,-724.048Z" style="fill:none;stroke:white;stroke-opacity:0.04;stroke-width:2.57px;"/>
            </g>
        </g>
    </g>
</svg>
