<?xml version="1.0" encoding="UTF-8" standalone="no"?>
<!DOCTYPE svg PUBLIC "-//W3C//DTD SVG 1.1//EN" "http://www.w3.org/Graphics/SVG/1.1/DTD/svg11.dtd">
<svg width="100%" height="100%" viewBox="0 0 3552 3464" version="1.1" xmlns="http://www.w3.org/2000/svg" xmlns:xlink="http://www.w3.org/1999/xlink" xml:space="preserve" xmlns:serif="http://www.serif.com/" style="fill-rule:evenodd;clip-rule:evenodd;stroke-linecap:round;stroke-linejoin:round;stroke-miterlimit:1.5;">
    <g transform="matrix(1,0,0,1,-586.512,-1318.21)">
        <g transform="matrix(0.430647,0,0,0.430647,336.305,752.898)">
            <path d="M1904.22,1322.37L7541.24,1322.37L8819.27,9345.21L590.679,9345.21L1904.22,1322.37ZM7870.32,8513.7L7553.6,6436.27L5803.03,8532.86L7870.32,8513.7ZM5257.8,2072.17L5483.42,5909.79L4074.51,7682.6L2827.52,7685.84L4955.68,5298.43L4882.28,2065.25L5257.8,2072.17ZM4305.1,2078.95L4341.55,4981.69L1768.95,7680.52L1666.29,7683.6L1924.02,6019.25L3961.09,4177.93L3991.01,2075.41L4305.1,2078.95ZM6906.38,2078.99L7457.78,5746.52L5772.16,7680.57L5001.22,7680.57L6230.6,6127.66L5901.42,2078.99L6906.38,2078.99ZM2511.91,2056.86L3450.56,2052.75L3376.48,3794.77L2092.17,4920.42L2511.91,2056.86Z" style="fill:none;stroke:black;stroke-width:19.35px;"/>
        </g>
    </g>
</svg>
