<?xml version="1.0" standalone="no"?>
<!DOCTYPE svg PUBLIC "-//W3C//DTD SVG 1.1//EN" "http://www.w3.org/Graphics/SVG/1.1/DTD/svg11.dtd">
<svg xmlns="http://www.w3.org/2000/svg" width="2812.380mm" height="11500.000mm" viewBox="0 0 2812.380 11500.000">
	<g id="BezierCurve">
		<path style="fill:none;stroke:black;" d="m0.000,11500.000c0.000,-0.000 0.000,-0.000 0.000,-0.000c0.000,-0.000 0.000,-11500.000 0.000,-11500.000c0.000,-0.000 0.000,-0.000 0.000,-0.000"/>
	</g>
	<g id="BezierCurve.001">
		<path style="fill:none;stroke:black;" d="m13.162,-0.000c-29.614,0.570 0.002,-0.000 -0.000,-0.000"/>
	</g>
	<g id="BezierCurve.002">
		<path style="fill:none;stroke:black;" d="m13.162,-0.000c-29.614,0.570 0.002,-0.000 -0.000,-0.000"/>
	</g>
	<g id="BezierCurve.003">
		<path style="fill:none;stroke:black;" d="m13.162,-0.000c-29.614,0.570 0.002,-0.000 -0.000,-0.000"/>
	</g>
	<g id="BezierCurve.004">
		<path style="fill:none;stroke:black;" d="m13.162,-0.000c-29.614,0.570 0.002,-0.000 -0.000,-0.000"/>
	</g>
	<g id="BezierCurve.005">
		<path style="fill:none;stroke:black;" d="m13.162,-0.000c-29.614,0.570 0.002,-0.000 -0.000,-0.000"/>
	</g>
	<g id="BezierCurve.006">
		<path style="fill:none;stroke:black;" d="m13.162,-0.000c-29.614,0.570 0.002,-0.000 -0.000,-0.000"/>
	</g>
	<g id="BezierCurve.007">
		<path style="fill:none;stroke:black;" d="m13.162,-0.000c-29.614,0.570 0.002,-0.000 -0.000,-0.000"/>
	</g>
	<g id="BezierCurve.008">
		<path style="fill:none;stroke:black;" d="m13.162,-0.000c-29.614,0.570 0.002,-0.000 -0.000,-0.000"/>
	</g>
	<g id="BezierCurve.009">
		<path style="fill:none;stroke:black;" d="m13.162,-0.000c-29.614,0.570 0.002,-0.000 -0.000,-0.000"/>
	</g>
	<g id="BezierCurve.010">
		<path style="fill:none;stroke:black;" d="m13.162,-0.000c-29.614,0.570 0.002,-0.000 -0.000,-0.000"/>
	</g>
	<g id="BezierCurve.011">
		<path style="fill:none;stroke:black;" d="m13.162,-0.000c-29.614,0.570 0.002,-0.000 -0.000,-0.000"/>
	</g>
	<g id="BezierCurve.012">
		<path style="fill:none;stroke:black;" d="m13.162,-0.000c-29.614,0.570 0.002,-0.000 -0.000,-0.000"/>
	</g>
	<g id="BezierCurve.013">
		<path style="fill:none;stroke:black;" d="m13.162,-0.000c-29.614,0.570 0.002,-0.000 -0.000,-0.000"/>
	</g>
	<g id="BezierCurve.014">
		<path style="fill:none;stroke:black;" d="m13.162,-0.000c-29.614,0.570 0.002,-0.000 -0.000,-0.000"/>
	</g>
	<g id="BezierCurve.015">
		<path style="fill:none;stroke:black;" d="m13.162,-0.000c-29.614,0.570 0.002,-0.000 -0.000,-0.000"/>
	</g>
	<g id="BezierCurve.016">
		<path style="fill:none;stroke:black;" d="m13.162,-0.000c-29.614,0.570 0.002,-0.000 -0.000,-0.000"/>
	</g>
	<g id="BezierCurve.017">
		<path style="fill:none;stroke:black;" d="m13.162,-0.000c-29.614,0.570 0.002,-0.000 -0.000,-0.000"/>
	</g>
	<g id="BezierCurve.018">
		<path style="fill:none;stroke:black;" d="m0.000,313.015c300.000,-300.000 1406.248,-521.618 2000.000,-0.000c1075.687,945.004 1090.660,3094.235 0.000,4000.000c-506.533,420.663 -1700.000,300.000 -2000.000,-0.000"/>
	</g>
	<g id="BezierCurve.019">
		<path style="fill:none;stroke:black;" d="m0.000,11500.000c0.000,-0.000 0.000,-0.000 0.000,-0.000c0.000,-0.000 0.000,-11500.000 0.000,-11500.000c0.000,-0.000 0.000,-0.000 0.000,-0.000"/>
	</g>
	<g id="BezierCurve.020">
		<path style="fill:none;stroke:black;" d="m0.000,11500.000c0.000,-0.000 0.000,-0.000 0.000,-0.000c0.000,-0.000 0.000,-11500.000 0.000,-11500.000c0.000,-0.000 0.000,-0.000 0.000,-0.000"/>
	</g>
	<g id="BezierCurve.021">
		<path style="fill:none;stroke:black;" d="m0.000,313.015c300.000,-300.000 1406.248,-521.618 2000.000,-0.000c1075.687,945.004 1090.660,3094.235 0.000,4000.000c-506.533,420.663 -1700.000,300.000 -2000.000,-0.000"/>
	</g>
	<g id="BezierCurve.039">
		<path style="fill:none;stroke:black;" d="m0.000,313.015c300.000,-300.000 1406.248,-521.618 2000.000,-0.000c1075.687,945.004 1090.660,3094.235 0.000,4000.000c-506.533,420.663 -1700.000,300.000 -2000.000,-0.000"/>
	</g>
</svg>