<?xml version="1.0" encoding="UTF-8" standalone="no"?>
<!DOCTYPE svg PUBLIC "-//W3C//DTD SVG 1.1//EN" "http://www.w3.org/Graphics/SVG/1.1/DTD/svg11.dtd">
<svg width="100%" height="100%" viewBox="0 0 164 166" version="1.1" xmlns="http://www.w3.org/2000/svg" xmlns:xlink="http://www.w3.org/1999/xlink" xml:space="preserve" xmlns:serif="http://www.serif.com/" style="fill-rule:evenodd;clip-rule:evenodd;stroke-linejoin:round;stroke-miterlimit:2;">
    <g transform="matrix(1,0,0,1,-553.722,-749.057)">
        <g transform="matrix(1,0,0,1,-7.53937,-6.38418)">
            <g transform="matrix(1,0,0,1,458.352,-58.7161)">
                <path d="M184.875,814.157C210.957,814.266 236.587,827.273 252.065,848.862C252.065,848.862 254.828,853.967 251.917,857.029C249.047,860.047 244.32,858.531 241.426,854.64C231.918,841.948 218.083,832.511 202.725,828.478C184.54,823.702 164.442,826.519 148.423,836.331C126.726,849.621 113.528,875.096 114.962,901.008C115.071,902.967 115.123,904.937 115.44,906.851C115.507,907.253 115.586,907.653 115.68,908.049C115.75,908.348 115.83,908.645 115.919,908.938C115.985,909.156 116.057,909.372 116.135,909.586C117.77,914.048 126.267,915.085 127.953,909.124C128.063,908.734 128.118,908.334 128.127,907.929C128.176,900.758 128.115,893.586 128.109,886.415C128.166,878.429 134.451,871.209 142.278,869.372C152.829,866.896 165.294,874.45 165.539,886.2C165.642,900.432 165.251,914.669 165.549,928.899C165.683,932.768 170.934,935.325 174.894,933.902C177.011,933.141 178.894,931.263 178.977,928.898C179.408,908.285 178.981,887.663 178.982,867.045C179.039,859.069 185.324,851.842 193.151,850.006C203.702,847.53 216.167,855.078 216.412,866.835C216.507,880.688 216.132,894.544 216.422,908.395C216.611,913.788 226.726,916.226 229.438,910.184C229.69,909.623 229.828,909.012 229.85,908.395C230,901.198 229.816,893.998 229.854,886.799C230.015,876.754 239.231,867.538 250.181,869.721C257.03,871.087 262.54,876.777 264.424,883.56C272.405,912.301 257.106,945.621 233.226,963.547C213.835,978.104 187.793,983.123 164.139,977.068C145.318,972.249 128.508,960.658 117.134,944.645C117.134,944.645 115.753,942.416 115.892,940.52C116.121,937.391 119.121,934.74 122.314,934.974C125.575,935.213 127.621,938.813 129.782,941.473C148.618,964.664 182.973,974.087 211.094,962.464C237.87,951.396 256.496,921.866 253.921,893.139C253.496,888.394 252.862,881.851 247.446,881.436C244.544,881.213 241.905,883.664 241.853,886.927C241.816,894.046 241.852,901.165 241.852,908.284C241.798,916.265 235.51,923.489 227.683,925.326C217.131,927.802 204.667,920.254 204.421,908.497C204.327,894.643 204.701,880.786 204.412,866.935C204.277,863.055 198.995,860.521 195.067,861.932C192.949,862.694 191.067,864.573 190.984,866.935C190.561,887.548 190.98,908.17 190.979,928.788C190.925,936.619 184.885,943.742 177.247,945.721C166.583,948.483 153.798,940.96 153.548,929C153.451,914.767 153.836,900.531 153.539,886.301C153.397,882.205 147.528,879.652 143.502,881.588C141.693,882.459 140.184,884.201 140.111,886.301C139.96,893.493 140.121,900.687 140.127,907.881C140.039,920.903 122.424,931.735 110.258,921.623C105.033,917.279 103.469,909.699 103.062,903.079C101.744,880.843 108.945,858.175 123.692,841.568C138.704,824.663 160.826,814.432 183.818,814.161C184.17,814.158 184.523,814.157 184.875,814.157Z" style="fill:url(#_Linear1);"/>
            </g>
        </g>
    </g>
    <defs>
        <linearGradient id="_Linear1" x1="0" y1="0" x2="1" y2="0" gradientUnits="userSpaceOnUse" gradientTransform="matrix(1.06807e-14,-174.429,174.429,1.06807e-14,112.703,993.207)"><stop offset="0" style="stop-color:rgb(131,211,230);stop-opacity:1"/><stop offset="0.5" style="stop-color:rgb(119,100,172);stop-opacity:1"/><stop offset="1" style="stop-color:rgb(168,73,155);stop-opacity:1"/></linearGradient>
    </defs>
</svg>
